<svg width="906" height="226" viewBox="0 0 906 226" fill="none" xmlns="http://www.w3.org/2000/svg">
<path d="M236.096 47.064C236.096 51.024 236.888 54.48 238.472 57.432C240.056 60.456 242.432 62.76 245.456 64.416C248.48 66.144 252.08 66.936 256.112 66.936C256.904 66.936 258.2 66.936 260 66.792C261.8 66.648 264.248 66.288 267.344 65.64C270.368 65.064 272.6 64.2 273.968 63.192V36.84H256.4V44.76H264.608V58.296C262.52 58.8 259.712 59.016 256.112 59.016C252.8 59.016 250.208 58.008 248.336 55.848C246.392 53.76 245.456 50.808 245.456 47.064V34.248C245.456 26.4 249.272 22.44 256.976 22.44C262.16 22.44 266.696 23.664 270.656 26.04L274.76 19.056C272.168 17.616 269.288 16.464 265.976 15.672C262.664 14.952 259.712 14.52 256.976 14.52C254.6 14.52 252.44 14.736 250.496 15.168C248.48 15.6 246.824 16.104 245.384 16.824C243.944 17.544 242.72 18.48 241.64 19.488C240.488 20.496 239.624 21.576 238.976 22.728C238.256 23.88 237.68 25.104 237.248 26.4C236.816 27.768 236.456 29.064 236.312 30.288C236.168 31.584 236.096 32.88 236.096 34.248V47.064ZM281.799 49.512C281.799 52.968 282.663 56.064 284.535 58.8C286.407 61.536 288.783 63.552 291.735 64.992C294.687 66.432 297.927 67.08 301.455 67.08C304.911 67.08 308.151 66.432 311.175 64.992C314.127 63.552 316.503 61.536 318.375 58.8C320.247 56.064 321.183 52.968 321.183 49.512V31.8C321.183 29.208 320.607 26.832 319.527 24.6C318.447 22.44 317.007 20.568 315.207 19.128C313.335 17.688 311.247 16.536 308.871 15.744C306.495 14.952 304.047 14.52 301.455 14.52C297.999 14.52 294.759 15.24 291.807 16.608C288.855 17.976 286.479 19.992 284.607 22.656C282.735 25.32 281.799 28.344 281.799 31.8V49.512ZM311.823 49.512C311.823 52.536 310.815 54.84 308.799 56.568C306.783 58.296 304.335 59.16 301.455 59.16C298.575 59.16 296.127 58.296 294.111 56.568C292.095 54.84 291.159 52.536 291.159 49.512V31.8C291.159 28.92 292.095 26.616 294.111 24.96C296.055 23.304 298.503 22.44 301.455 22.44C304.335 22.44 306.783 23.304 308.799 24.96C310.815 26.616 311.823 28.92 311.823 31.8V49.512ZM329.019 15.6V66H350.403C361.347 66 366.891 60.96 366.891 50.808C366.891 44.76 364.587 40.728 359.979 38.712C361.563 37.992 362.859 36.768 363.867 35.184C364.875 33.6 365.379 31.584 365.379 29.28C365.379 24.672 363.939 21.288 361.203 18.984C358.467 16.752 354.795 15.6 350.259 15.6H329.019ZM338.379 35.184V23.52H350.115C354.003 23.52 356.019 25.464 356.019 29.28C356.019 30.72 355.659 31.872 355.083 32.808C354.507 33.744 353.859 34.392 353.139 34.68C352.419 35.04 351.627 35.184 350.907 35.184H338.379ZM338.379 58.08V43.104H350.763C351.771 43.104 352.635 43.248 353.427 43.536C354.219 43.824 354.939 44.328 355.587 44.904C356.163 45.48 356.667 46.272 357.027 47.28C357.315 48.288 357.531 49.512 357.531 50.808C357.531 52.32 357.315 53.544 356.955 54.552C356.523 55.56 356.019 56.352 355.299 56.784C354.579 57.288 353.787 57.648 352.995 57.792C352.203 58.008 351.267 58.08 350.187 58.08H338.379ZM374.301 15.6V66H383.733V15.6H374.301ZM393.285 15.6V66H427.341V58.08H402.717V43.968H424.533V36.048H402.717V23.52H426.693V15.6H393.285ZM434.558 15.6V66H443.99V47.568H452.342L463.862 66H474.374L461.846 46.272C465.302 45.408 467.894 43.608 469.622 41.016C471.35 38.424 472.286 35.328 472.286 31.584C472.286 26.832 470.918 22.944 468.182 19.992C465.446 17.112 461.342 15.6 455.942 15.6H434.558ZM443.99 39.648V23.52H455.942C458.246 23.52 460.046 24.24 461.198 25.68C462.35 27.12 462.926 29.064 462.926 31.584C462.926 34.176 462.35 36.12 461.198 37.56C460.046 39 458.246 39.648 455.942 39.648H443.99ZM510.391 15.6V47.712L489.367 15.6H481.231V66H490.591V33.744L511.831 66H519.751V15.6H510.391ZM526.979 49.512C526.979 52.968 527.843 56.064 529.715 58.8C531.587 61.536 533.963 63.552 536.915 64.992C539.867 66.432 543.107 67.08 546.635 67.08C550.091 67.08 553.331 66.432 556.355 64.992C559.307 63.552 561.683 61.536 563.555 58.8C565.427 56.064 566.363 52.968 566.363 49.512V31.8C566.363 29.208 565.787 26.832 564.707 24.6C563.627 22.44 562.187 20.568 560.387 19.128C558.515 17.688 556.427 16.536 554.051 15.744C551.675 14.952 549.227 14.52 546.635 14.52C543.179 14.52 539.939 15.24 536.987 16.608C534.035 17.976 531.659 19.992 529.787 22.656C527.915 25.32 526.979 28.344 526.979 31.8V49.512ZM557.003 49.512C557.003 52.536 555.995 54.84 553.979 56.568C551.963 58.296 549.515 59.16 546.635 59.16C543.755 59.16 541.307 58.296 539.291 56.568C537.275 54.84 536.339 52.536 536.339 49.512V31.8C536.339 28.92 537.275 26.616 539.291 24.96C541.235 23.304 543.683 22.44 546.635 22.44C549.515 22.44 551.963 23.304 553.979 24.96C555.995 26.616 557.003 28.92 557.003 31.8V49.512ZM617.371 15.6V66H635.947C639.403 66 642.643 65.352 645.667 63.912C648.619 62.472 650.995 60.456 652.867 57.72C654.667 55.056 655.603 51.96 655.603 48.504V32.88C655.603 29.424 654.667 26.4 652.795 23.736C650.923 21.072 648.547 19.056 645.595 17.688C642.571 16.32 639.403 15.6 635.947 15.6H617.371ZM646.243 48.504C646.243 51.528 645.235 53.832 643.219 55.56C641.203 57.288 638.827 58.08 635.947 58.08H626.731V23.52H635.947C637.819 23.52 639.475 23.88 641.059 24.6C642.571 25.32 643.795 26.328 644.803 27.768C645.739 29.208 646.243 30.936 646.243 32.88V48.504ZM663.496 15.6V66H697.552V58.08H672.928V43.968H694.744V36.048H672.928V23.52H696.904V15.6H663.496Z" fill="#9E1524"/>
<path d="M237.464 195.248C251 200 262.664 202.304 272.456 202.304C274.76 202.304 276.632 202.304 278.216 202.16C279.8 202.16 281.816 202.016 284.12 201.728C286.424 201.44 288.584 201.008 290.312 200.432C292.04 199.856 293.912 199.136 295.928 198.272C297.944 197.408 299.528 196.112 300.968 194.528C302.408 193.088 303.704 191.216 304.856 189.2C306.008 187.184 307.016 184.736 307.592 181.856C308.168 178.976 308.6 175.664 308.6 172.064C308.6 169.184 308.168 166.592 307.448 164C306.728 161.552 305.864 159.392 305 157.52C303.992 155.792 302.552 154.064 300.68 152.336C298.664 150.608 297.08 149.312 295.64 148.304C294.2 147.44 292.04 146.288 289.304 145.136C286.568 143.984 284.408 142.976 282.968 142.4C281.384 141.824 279.08 141.104 276.056 139.952C273.608 139.232 271.736 138.656 270.44 138.08C269.144 137.648 267.56 136.928 265.832 136.064C264.104 135.2 262.664 134.192 261.8 133.328C260.936 132.464 260.072 131.456 259.352 130.016C258.632 128.576 258.344 126.992 258.344 125.264C258.344 117.056 263.816 112.88 274.904 112.88C281.528 112.88 289.016 115.472 297.08 120.368L305.864 106.544C300.968 103.088 295.64 100.64 290.168 99.2C284.552 97.76 279.512 97.04 274.904 97.04C268.28 97.04 262.52 97.904 257.768 99.344C252.872 100.928 249.272 103.088 246.68 105.824C244.088 108.704 242.36 111.584 241.208 114.752C240.056 117.92 239.624 121.52 239.624 125.264C239.624 128.864 240.2 132.176 241.496 135.056C242.792 138.08 244.376 140.528 246.248 142.4C247.976 144.272 250.424 146.144 253.448 147.872C256.472 149.6 259.208 151.04 261.512 151.904C263.816 152.768 266.84 153.776 270.44 154.928C273.32 156.08 275.768 156.944 277.64 157.808C279.512 158.672 281.528 159.68 283.688 160.976C285.704 162.416 287.288 164 288.296 165.872C289.304 167.744 289.88 169.76 289.88 172.064C289.88 175.232 289.304 177.68 288.44 179.696C287.432 181.712 285.992 183.296 284.264 184.16C282.392 185.024 280.52 185.744 278.792 186.032C277.064 186.32 274.904 186.464 272.456 186.464C268.28 186.464 264.104 186.032 259.784 185.168C255.464 184.304 249.56 182.576 242.072 180.128L237.464 195.248ZM353.48 99.2L316.904 200H336.488L343.832 179.552H377.96L385.448 200H404.888L368.312 99.2H353.48ZM373.928 165.44H347.576L360.824 127.136L373.928 165.44ZM475.453 99.2V163.424L433.405 99.2H417.133V200H435.853V135.488L478.333 200H494.173V99.2H475.453ZM560.297 99.2V195.68C560.297 197.696 559.721 199.424 558.713 201.152C557.561 202.88 556.121 204.32 554.105 205.472C552.089 206.768 550.217 207.776 548.777 208.496C547.193 209.36 545.321 210.08 543.305 210.8L548.777 223.76C548.921 223.76 549.209 223.616 549.785 223.328C551.657 222.752 553.241 222.32 554.393 221.888C555.545 221.456 557.129 220.736 559.433 219.728C561.737 218.72 563.609 217.712 565.193 216.848C566.633 215.984 568.361 214.688 570.233 213.104C572.105 211.664 573.689 210.08 574.841 208.352C575.993 206.768 576.857 204.896 577.721 202.592C578.585 200.432 579.017 198.128 579.017 195.68V99.2H560.297ZM657.617 99.2V165.008C657.617 169.616 656.753 173.504 655.313 176.672C653.873 179.84 651.569 182.288 648.545 183.872C645.521 185.6 641.777 186.32 637.313 186.32C630.689 186.32 625.649 184.592 622.193 180.992C618.737 177.392 617.153 172.064 617.153 165.008V99.2H598.289V165.008C598.289 176.672 601.601 185.744 608.369 192.368C614.993 198.992 624.641 202.304 637.313 202.304C649.985 202.304 659.633 198.992 666.401 192.368C673.025 185.744 676.481 176.672 676.481 165.008V99.2H657.617ZM720.511 99.2L683.935 200H703.519L710.863 179.552H744.991L752.479 200H771.919L735.343 99.2H720.511ZM740.959 165.44H714.607L727.855 127.136L740.959 165.44ZM842.485 99.2V163.424L800.437 99.2H784.165V200H802.885V135.488L845.365 200H861.205V99.2H842.485Z" fill="#9E1524"/>
<path d="M237.464 195.248L234.594 194.373L233.756 197.126L236.47 198.079L237.464 195.248ZM278.216 202.16V199.16H278.08L277.944 199.172L278.216 202.16ZM284.12 201.728L283.748 198.751L284.12 201.728ZM290.312 200.432L291.261 203.278H291.261L290.312 200.432ZM295.928 198.272L294.746 195.515H294.746L295.928 198.272ZM300.968 194.528L298.847 192.407L298.796 192.457L298.748 192.51L300.968 194.528ZM304.856 189.2L302.251 187.712V187.712L304.856 189.2ZM307.592 181.856L310.534 182.444L307.592 181.856ZM307.448 164L310.339 163.197L310.332 163.175L310.326 163.154L307.448 164ZM305 157.52L307.724 156.263L307.664 156.132L307.591 156.008L305 157.52ZM300.68 152.336L302.715 150.132L302.674 150.094L302.632 150.058L300.68 152.336ZM295.64 148.304L297.36 145.846L297.274 145.786L297.183 145.732L295.64 148.304ZM289.304 145.136L288.14 147.901H288.14L289.304 145.136ZM282.968 142.4L284.082 139.615L284.038 139.597L283.993 139.581L282.968 142.4ZM276.056 139.952L277.124 137.149L277.015 137.107L276.903 137.074L276.056 139.952ZM270.44 138.08L271.658 135.339L271.526 135.28L271.389 135.234L270.44 138.08ZM265.832 136.064L267.174 133.381H267.174L265.832 136.064ZM261.8 133.328L263.921 131.207L263.921 131.207L261.8 133.328ZM259.352 130.016L262.035 128.674L262.035 128.674L259.352 130.016ZM297.08 120.368L295.523 122.932L298.036 124.458L299.612 121.977L297.08 120.368ZM305.864 106.544L308.396 108.153L309.929 105.741L307.594 104.093L305.864 106.544ZM290.168 99.2L290.931 96.2988L290.922 96.2964L290.913 96.294L290.168 99.2ZM257.768 99.344L256.898 96.4729L256.871 96.481L256.845 96.4897L257.768 99.344ZM246.68 105.824L244.502 103.761L244.476 103.789L244.45 103.817L246.68 105.824ZM241.208 114.752L244.027 115.777H244.027L241.208 114.752ZM241.496 135.056L244.253 133.874L244.243 133.849L244.232 133.825L241.496 135.056ZM246.248 142.4L248.452 140.365L248.412 140.321L248.369 140.279L246.248 142.4ZM261.512 151.904L262.565 149.095H262.565L261.512 151.904ZM270.44 154.928L271.554 152.143L271.456 152.103L271.354 152.071L270.44 154.928ZM277.64 157.808L276.383 160.532L277.64 157.808ZM283.688 160.976L285.432 158.535L285.334 158.465L285.231 158.404L283.688 160.976ZM288.296 165.872L285.655 167.294L285.655 167.294L288.296 165.872ZM288.44 179.696L291.123 181.038L291.163 180.959L291.197 180.878L288.44 179.696ZM284.264 184.16L285.521 186.884L285.564 186.864L285.606 186.843L284.264 184.16ZM278.792 186.032L279.285 188.991H279.285L278.792 186.032ZM259.784 185.168L260.372 182.226L259.784 185.168ZM242.072 180.128L243.004 177.277L240.095 176.325L239.202 179.253L242.072 180.128ZM236.47 198.079C250.204 202.9 262.217 205.304 272.456 205.304V199.304C263.111 199.304 251.796 197.1 238.458 192.417L236.47 198.079ZM272.456 205.304C274.714 205.304 276.739 205.307 278.488 205.148L277.944 199.172C276.525 199.301 274.806 199.304 272.456 199.304V205.304ZM278.216 205.16C279.963 205.16 282.11 205.003 284.492 204.705L283.748 198.751C281.522 199.029 279.637 199.16 278.216 199.16V205.16ZM284.492 204.705C286.909 204.403 289.28 203.938 291.261 203.278L289.363 197.586C287.888 198.078 285.939 198.477 283.748 198.751L284.492 204.705ZM291.261 203.278C293.082 202.671 295.032 201.92 297.11 201.029L294.746 195.515C292.792 196.352 290.998 197.041 289.363 197.586L291.261 203.278ZM297.11 201.029C299.631 199.949 301.552 198.346 303.188 196.546L298.748 192.51C297.504 193.878 296.257 194.867 294.746 195.515L297.11 201.029ZM303.089 196.649C304.79 194.949 306.239 192.827 307.461 190.688L302.251 187.712C301.169 189.605 300.026 191.227 298.847 192.407L303.089 196.649ZM307.461 190.688C308.758 188.417 309.889 185.667 310.534 182.444L304.65 181.268C304.143 183.805 303.258 185.951 302.251 187.712L307.461 190.688ZM310.534 182.444C311.14 179.415 311.6 175.902 311.6 172.064H305.6C305.6 175.426 305.196 178.537 304.65 181.268L310.534 182.444ZM311.6 172.064C311.6 168.866 311.118 166.001 310.339 163.197L304.557 164.803C305.218 167.183 305.6 169.502 305.6 172.064H311.6ZM310.326 163.154C309.557 160.54 308.637 158.242 307.724 156.263L302.276 158.777C303.091 160.542 303.899 162.564 304.57 164.846L310.326 163.154ZM307.591 156.008C306.399 153.964 304.749 152.009 302.715 150.132L298.645 154.54C300.355 156.119 301.585 157.62 302.409 159.032L307.591 156.008ZM302.632 150.058C300.606 148.321 298.928 146.944 297.36 145.846L293.92 150.762C295.232 151.68 296.722 152.895 298.728 154.614L302.632 150.058ZM297.183 145.732C295.625 144.796 293.338 143.58 290.468 142.371L288.14 147.901C290.742 148.996 292.775 150.084 294.097 150.876L297.183 145.732ZM290.468 142.371C287.943 141.308 285.499 140.181 284.082 139.615L281.854 145.185C283.317 145.771 285.193 146.66 288.14 147.901L290.468 142.371ZM283.993 139.581C282.171 138.918 280.196 138.319 277.124 137.149L274.988 142.755C277.964 143.889 280.597 144.73 281.943 145.219L283.993 139.581ZM276.903 137.074C274.404 136.339 272.737 135.818 271.658 135.339L269.222 140.821C270.735 141.494 272.812 142.125 275.21 142.83L276.903 137.074ZM271.389 135.234C270.302 134.872 268.872 134.23 267.174 133.381L264.49 138.747C266.248 139.626 267.986 140.424 269.491 140.926L271.389 135.234ZM267.174 133.381C265.639 132.613 264.492 131.778 263.921 131.207L259.679 135.449C260.836 136.606 262.569 137.787 264.49 138.747L267.174 133.381ZM263.921 131.207C263.193 130.478 262.562 129.729 262.035 128.674L256.669 131.358C257.582 133.183 258.679 134.45 259.679 135.449L263.921 131.207ZM262.035 128.674C261.575 127.754 261.344 126.658 261.344 125.264H255.344C255.344 127.326 255.689 129.398 256.669 131.358L262.035 128.674ZM261.344 125.264C261.344 121.891 262.423 119.779 264.269 118.392C266.275 116.884 269.651 115.88 274.904 115.88V109.88C269.069 109.88 264.165 110.964 260.663 113.596C257.001 116.349 255.344 120.429 255.344 125.264H261.344ZM274.904 115.88C280.774 115.88 287.715 118.192 295.523 122.932L298.637 117.804C290.317 112.752 282.282 109.88 274.904 109.88V115.88ZM299.612 121.977L308.396 108.153L303.332 104.935L294.548 118.759L299.612 121.977ZM307.594 104.093C302.405 100.43 296.75 97.8298 290.931 96.2988L289.405 102.101C294.53 103.45 299.531 105.746 304.134 108.995L307.594 104.093ZM290.913 96.294C285.117 94.8079 279.822 94.04 274.904 94.04V100.04C279.202 100.04 283.987 100.712 289.423 102.106L290.913 96.294ZM274.904 94.04C268.025 94.04 261.968 94.9365 256.898 96.4729L258.638 102.215C263.072 100.871 268.535 100.04 274.904 100.04V94.04ZM256.845 96.4897C251.6 98.1865 247.522 100.573 244.502 103.761L248.858 107.887C251.022 105.603 254.144 103.669 258.691 102.198L256.845 96.4897ZM244.45 103.817C241.619 106.963 239.682 110.171 238.389 113.727L244.027 115.777C245.038 112.997 246.557 110.445 248.91 107.831L244.45 103.817ZM238.389 113.727C237.076 117.336 236.624 121.314 236.624 125.264H242.624C242.624 121.726 243.036 118.504 244.027 115.777L238.389 113.727ZM236.624 125.264C236.624 129.172 237.248 132.926 238.76 136.287L244.232 133.825C243.152 131.425 242.624 128.556 242.624 125.264H236.624ZM238.739 136.238C240.15 139.53 241.928 142.323 244.127 144.521L248.369 140.279C246.824 138.733 245.434 136.63 244.253 133.874L238.739 136.238ZM244.044 144.435C246.035 146.592 248.751 148.643 251.96 150.477L254.936 145.267C252.097 143.645 249.917 141.952 248.452 140.365L244.044 144.435ZM251.96 150.477C254.999 152.213 257.913 153.758 260.459 154.713L262.565 149.095C260.503 148.322 257.945 146.987 254.936 145.267L251.96 150.477ZM260.459 154.713C262.836 155.604 265.919 156.631 269.526 157.785L271.354 152.071C267.761 150.921 264.796 149.932 262.565 149.095L260.459 154.713ZM269.326 157.713C272.387 158.938 274.598 159.708 276.383 160.532L278.897 155.084C276.938 154.18 274.253 153.222 271.554 152.143L269.326 157.713ZM276.383 160.532C278.19 161.366 280.104 162.324 282.145 163.548L285.231 158.404C282.952 157.036 280.834 155.978 278.897 155.084L276.383 160.532ZM281.944 163.417C283.734 164.696 284.936 165.96 285.655 167.294L290.937 164.45C289.64 162.04 287.674 160.136 285.432 158.535L281.944 163.417ZM285.655 167.294C286.448 168.768 286.88 170.298 286.88 172.064H292.88C292.88 169.222 292.16 166.72 290.937 164.45L285.655 167.294ZM286.88 172.064C286.88 174.847 286.379 176.89 285.683 178.514L291.197 180.878C292.23 178.47 292.88 175.617 292.88 172.064H286.88ZM285.757 178.354C284.965 179.937 283.938 180.969 282.922 181.477L285.606 186.843C288.046 185.623 289.899 183.487 291.123 181.038L285.757 178.354ZM283.007 181.436C281.207 182.267 279.626 182.852 278.299 183.073L279.285 188.991C281.414 188.636 283.577 187.781 285.521 186.884L283.007 181.436ZM278.299 183.073C276.787 183.325 274.804 183.464 272.456 183.464V189.464C275.004 189.464 277.341 189.315 279.285 188.991L278.299 183.073ZM272.456 183.464C268.491 183.464 264.513 183.054 260.372 182.226L259.196 188.11C263.695 189.01 268.069 189.464 272.456 189.464V183.464ZM260.372 182.226C256.24 181.4 250.481 179.721 243.004 177.277L241.14 182.979C248.639 185.431 254.688 187.208 259.196 188.11L260.372 182.226ZM239.202 179.253L234.594 194.373L240.334 196.123L244.942 181.003L239.202 179.253ZM353.48 99.2V96.2H351.377L350.66 98.1767L353.48 99.2ZM316.904 200L314.084 198.977L312.624 203H316.904V200ZM336.488 200V203H338.598L339.311 201.014L336.488 200ZM343.832 179.552V176.552H341.721L341.008 178.538L343.832 179.552ZM377.96 179.552L380.777 178.52L380.056 176.552H377.96V179.552ZM385.448 200L382.631 201.032L383.351 203H385.448V200ZM404.888 200V203H409.168L407.708 198.977L404.888 200ZM368.312 99.2L371.132 98.1767L370.414 96.2H368.312V99.2ZM373.928 165.44V168.44H378.125L376.766 164.469L373.928 165.44ZM347.576 165.44L344.74 164.459L343.364 168.44H347.576V165.44ZM360.824 127.136L363.662 126.165L360.839 117.913L357.988 126.155L360.824 127.136ZM350.66 98.1767L314.084 198.977L319.724 201.023L356.3 100.223L350.66 98.1767ZM316.904 203H336.488V197H316.904V203ZM339.311 201.014L346.655 180.566L341.008 178.538L333.664 198.986L339.311 201.014ZM343.832 182.552H377.96V176.552H343.832V182.552ZM375.143 180.584L382.631 201.032L388.265 198.968L380.777 178.52L375.143 180.584ZM385.448 203H404.888V197H385.448V203ZM407.708 198.977L371.132 98.1767L365.492 100.223L402.068 201.023L407.708 198.977ZM368.312 96.2H353.48V102.2H368.312V96.2ZM373.928 162.44H347.576V168.44H373.928V162.44ZM350.411 166.421L363.659 128.117L357.988 126.155L344.74 164.459L350.411 166.421ZM357.985 128.107L371.089 166.411L376.766 164.469L363.662 126.165L357.985 128.107ZM475.453 99.2V96.2H472.453V99.2H475.453ZM475.453 163.424L472.943 165.067L478.453 173.483V163.424H475.453ZM433.405 99.2L435.915 97.5567L435.027 96.2H433.405V99.2ZM417.133 99.2V96.2H414.133V99.2H417.133ZM417.133 200H414.133V203H417.133V200ZM435.853 200V203H438.853V200H435.853ZM435.853 135.488L438.359 133.838L432.853 125.477V135.488H435.853ZM478.333 200L475.828 201.65L476.717 203H478.333V200ZM494.173 200V203H497.173V200H494.173ZM494.173 99.2H497.173V96.2H494.173V99.2ZM472.453 99.2V163.424H478.453V99.2H472.453ZM477.963 161.781L435.915 97.5567L430.895 100.843L472.943 165.067L477.963 161.781ZM433.405 96.2H417.133V102.2H433.405V96.2ZM414.133 99.2V200H420.133V99.2H414.133ZM417.133 203H435.853V197H417.133V203ZM438.853 200V135.488H432.853V200H438.853ZM433.348 137.138L475.828 201.65L480.839 198.35L438.359 133.838L433.348 137.138ZM478.333 203H494.173V197H478.333V203ZM497.173 200V99.2H491.173V200H497.173ZM494.173 96.2H475.453V102.2H494.173V96.2ZM560.297 99.2V96.2H557.297V99.2H560.297ZM558.713 201.152L561.21 202.816L561.259 202.741L561.305 202.664L558.713 201.152ZM554.105 205.472L552.617 202.867L552.549 202.906L552.483 202.948L554.105 205.472ZM548.777 208.496L547.436 205.813L547.388 205.837L547.341 205.862L548.777 208.496ZM543.305 210.8L542.296 207.975L539.307 209.042L540.542 211.967L543.305 210.8ZM548.777 223.76L546.014 224.927L546.788 226.76H548.777V223.76ZM549.785 223.328L548.903 220.461L548.666 220.534L548.444 220.645L549.785 223.328ZM554.393 221.888L555.447 224.697L554.393 221.888ZM559.433 219.728L558.231 216.98L559.433 219.728ZM565.193 216.848L566.63 219.482L566.684 219.452L566.737 219.42L565.193 216.848ZM570.233 213.104L568.404 210.726L568.349 210.769L568.296 210.814L570.233 213.104ZM574.841 208.352L572.415 206.587L572.379 206.637L572.345 206.688L574.841 208.352ZM577.721 202.592L574.936 201.478L574.924 201.508L574.912 201.539L577.721 202.592ZM579.017 99.2H582.017V96.2H579.017V99.2ZM557.297 99.2V195.68H563.297V99.2H557.297ZM557.297 195.68C557.297 197.057 556.923 198.268 556.122 199.64L561.305 202.664C562.52 200.58 563.297 198.335 563.297 195.68H557.297ZM556.217 199.488C555.3 200.863 554.194 201.966 552.617 202.867L555.594 208.077C558.049 206.674 559.823 204.897 561.21 202.816L556.217 199.488ZM552.483 202.948C550.58 204.172 548.806 205.128 547.436 205.813L550.119 211.179C551.629 210.424 553.599 209.364 555.728 207.996L552.483 202.948ZM547.341 205.862C545.981 206.604 544.303 207.258 542.296 207.975L544.314 213.625C546.34 212.902 548.406 212.116 550.214 211.13L547.341 205.862ZM540.542 211.967L546.014 224.927L551.541 222.593L546.069 209.633L540.542 211.967ZM548.777 226.76C549.265 226.76 549.652 226.647 549.829 226.59C550.034 226.525 550.214 226.448 550.338 226.393C550.577 226.287 550.867 226.141 551.127 226.011L548.444 220.645C548.296 220.718 548.182 220.775 548.086 220.823C547.987 220.871 547.931 220.897 547.901 220.911C547.887 220.917 547.889 220.916 547.901 220.911C547.913 220.906 547.948 220.892 548 220.876C548.051 220.86 548.14 220.833 548.257 220.81C548.372 220.787 548.552 220.76 548.777 220.76V226.76ZM550.668 226.195C552.385 225.667 554.183 225.171 555.447 224.697L553.34 219.079C552.299 219.469 550.929 219.837 548.903 220.461L550.668 226.195ZM555.447 224.697C556.699 224.227 558.414 223.449 560.636 222.476L558.231 216.98C555.845 218.023 554.392 218.685 553.34 219.079L555.447 224.697ZM560.636 222.476C563.066 221.413 565.033 220.353 566.63 219.482L563.757 214.214C562.186 215.071 560.409 216.027 558.231 216.98L560.636 222.476ZM566.737 219.42C568.373 218.439 570.24 217.029 572.171 215.394L568.296 210.814C566.483 212.347 564.894 213.529 563.65 214.276L566.737 219.42ZM572.062 215.482C574.118 213.901 575.957 212.087 577.338 210.016L572.345 206.688C571.422 208.073 570.093 209.427 568.404 210.726L572.062 215.482ZM577.268 210.117C578.656 208.208 579.632 206.04 580.53 203.645L574.912 201.539C574.082 203.752 573.331 205.328 572.415 206.587L577.268 210.117ZM580.507 203.706C581.52 201.173 582.017 198.489 582.017 195.68H576.017C576.017 197.767 575.651 199.691 574.936 201.478L580.507 203.706ZM582.017 195.68V99.2H576.017V195.68H582.017ZM579.017 96.2H560.297V102.2H579.017V96.2ZM657.617 99.2V96.2H654.617V99.2H657.617ZM655.313 176.672L658.044 177.913V177.913L655.313 176.672ZM648.545 183.872L647.153 181.215L647.104 181.24L647.056 181.267L648.545 183.872ZM622.193 180.992L624.357 178.914L622.193 180.992ZM617.153 99.2H620.153V96.2H617.153V99.2ZM598.289 99.2V96.2H595.289V99.2H598.289ZM608.369 192.368L610.49 190.247L610.479 190.235L610.467 190.224L608.369 192.368ZM666.401 192.368L668.499 194.512L668.511 194.501L668.522 194.489L666.401 192.368ZM676.481 99.2H679.481V96.2H676.481V99.2ZM654.617 99.2V165.008H660.617V99.2H654.617ZM654.617 165.008C654.617 169.24 653.824 172.697 652.582 175.431L658.044 177.913C659.681 174.311 660.617 169.992 660.617 165.008H654.617ZM652.582 175.431C651.413 178.002 649.575 179.946 647.153 181.215L649.937 186.529C653.563 184.63 656.332 181.678 658.044 177.913L652.582 175.431ZM647.056 181.267C644.651 182.641 641.486 183.32 637.313 183.32V189.32C642.067 189.32 646.39 188.559 650.033 186.477L647.056 181.267ZM637.313 183.32C631.195 183.32 627.063 181.734 624.357 178.914L620.028 183.07C624.234 187.45 630.182 189.32 637.313 189.32V183.32ZM624.357 178.914C621.655 176.1 620.153 171.674 620.153 165.008H614.153C614.153 172.454 615.819 178.684 620.028 183.07L624.357 178.914ZM620.153 165.008V99.2H614.153V165.008H620.153ZM617.153 96.2H598.289V102.2H617.153V96.2ZM595.289 99.2V165.008H601.289V99.2H595.289ZM595.289 165.008C595.289 177.269 598.791 187.192 606.27 194.512L610.467 190.224C604.41 184.296 601.289 176.075 601.289 165.008H595.289ZM606.247 194.489C613.609 201.851 624.133 205.304 637.313 205.304V199.304C625.148 199.304 616.376 196.133 610.49 190.247L606.247 194.489ZM637.313 205.304C650.502 205.304 661.005 201.847 668.499 194.512L664.302 190.224C658.261 196.137 649.467 199.304 637.313 199.304V205.304ZM668.522 194.489C675.817 187.195 679.481 177.301 679.481 165.008H673.481C673.481 176.043 670.233 184.293 664.279 190.247L668.522 194.489ZM679.481 165.008V99.2H673.481V165.008H679.481ZM676.481 96.2H657.617V102.2H676.481V96.2ZM720.511 99.2V96.2H718.408L717.691 98.1767L720.511 99.2ZM683.935 200L681.115 198.977L679.655 203H683.935V200ZM703.519 200V203H705.629L706.342 201.014L703.519 200ZM710.863 179.552V176.552H708.753L708.039 178.538L710.863 179.552ZM744.991 179.552L747.808 178.52L747.087 176.552H744.991V179.552ZM752.479 200L749.662 201.032L750.383 203H752.479V200ZM771.919 200V203H776.199L774.739 198.977L771.919 200ZM735.343 99.2L738.163 98.1767L737.446 96.2H735.343V99.2ZM740.959 165.44V168.44H745.156L743.797 164.469L740.959 165.44ZM714.607 165.44L711.772 164.459L710.395 168.44H714.607V165.44ZM727.855 127.136L730.693 126.165L727.87 117.913L725.02 126.155L727.855 127.136ZM717.691 98.1767L681.115 198.977L686.755 201.023L723.331 100.223L717.691 98.1767ZM683.935 203H703.519V197H683.935V203ZM706.342 201.014L713.686 180.566L708.039 178.538L700.695 198.986L706.342 201.014ZM710.863 182.552H744.991V176.552H710.863V182.552ZM742.174 180.584L749.662 201.032L755.296 198.968L747.808 178.52L742.174 180.584ZM752.479 203H771.919V197H752.479V203ZM774.739 198.977L738.163 98.1767L732.523 100.223L769.099 201.023L774.739 198.977ZM735.343 96.2H720.511V102.2H735.343V96.2ZM740.959 162.44H714.607V168.44H740.959V162.44ZM717.442 166.421L730.69 128.117L725.02 126.155L711.772 164.459L717.442 166.421ZM725.016 128.107L738.12 166.411L743.797 164.469L730.693 126.165L725.016 128.107ZM842.484 99.2V96.2H839.484V99.2H842.484ZM842.484 163.424L839.975 165.067L845.484 173.483V163.424H842.484ZM800.437 99.2L802.946 97.5567L802.058 96.2H800.437V99.2ZM784.164 99.2V96.2H781.164V99.2H784.164ZM784.164 200H781.164V203H784.164V200ZM802.885 200V203H805.885V200H802.885ZM802.885 135.488L805.39 133.838L799.885 125.477V135.488H802.885ZM845.365 200L842.859 201.65L843.748 203H845.365V200ZM861.205 200V203H864.205V200H861.205ZM861.205 99.2H864.205V96.2H861.205V99.2ZM839.484 99.2V163.424H845.484V99.2H839.484ZM844.994 161.781L802.946 97.5567L797.927 100.843L839.975 165.067L844.994 161.781ZM800.437 96.2H784.164V102.2H800.437V96.2ZM781.164 99.2V200H787.164V99.2H781.164ZM784.164 203H802.885V197H784.164V203ZM805.885 200V135.488H799.885V200H805.885ZM800.379 137.138L842.859 201.65L847.87 198.35L805.39 133.838L800.379 137.138ZM845.365 203H861.205V197H845.365V203ZM864.205 200V99.2H858.205V200H864.205ZM861.205 96.2H842.484V102.2H861.205V96.2Z" fill="#9E1524"/>
<path d="M41.3955 42.2605C40.9955 45.8605 37.8955 54.0938 36.3955 57.7605C60.7955 43.3605 93.3955 55.7605 105.396 61.7605C92.8955 33.7605 71.3955 28.2234 58.8955 27.7605C45.3955 27.2606 41.8955 37.7605 41.3955 42.2605Z" fill="url(#paint0_linear_12_58375)"/>
<path d="M94.2633 17.6801C91.8216 20.3555 84.4705 25.1886 81.1001 27.2707C109.302 29.9847 128.365 59.1932 134.537 71.1056C140.906 41.1107 126.78 23.9827 116.945 16.2533C106.324 7.90545 97.3155 14.3358 94.2633 17.6801Z" fill="url(#paint1_linear_12_58375)"/>
<path d="M151.536 28.7247C148.002 29.5177 139.208 29.2649 135.252 29.0393C156.807 47.4272 155.688 82.2879 153.918 95.5871C176.328 74.6578 174.569 52.526 170.94 40.5554C167.021 27.6272 155.954 27.7335 151.536 28.7247Z" fill="url(#paint2_linear_12_58375)"/>
<path d="M192.294 71.5307C189.039 69.9426 182.329 64.2529 179.381 61.6065C184.73 89.4292 162.083 115.955 152.395 125.237C182.969 122.888 195.418 104.505 200.06 92.8894C205.073 80.345 196.364 73.5158 192.294 71.5307Z" fill="url(#paint3_linear_12_58375)"/>
<path d="M198.634 127.975C196.841 124.828 194.509 116.345 193.567 112.496C182.292 138.489 148.63 147.62 135.395 149.819C161.966 165.124 182.615 156.965 192.999 149.992C204.215 142.461 200.874 131.909 198.634 127.975Z" fill="url(#paint4_linear_12_58375)"/>
<path d="M169.476 178.117C169.896 174.519 173.041 166.303 174.562 162.645C150.082 176.909 117.552 164.327 105.585 158.26C117.929 186.33 139.398 191.987 151.895 192.519C165.392 193.094 168.95 182.614 169.476 178.117Z" fill="url(#paint5_linear_12_58375)"/>
<path d="M117.19 203.373C119.627 200.694 126.971 195.849 130.338 193.761C102.131 191.093 83.0207 161.916 76.829 150.014C70.5095 180.019 84.6634 197.124 94.5107 204.837C105.146 213.167 114.143 206.722 117.19 203.373Z" fill="url(#paint6_linear_12_58375)"/>
<path d="M60.5608 191.987C64.0948 191.193 72.8889 191.443 76.8441 191.668C55.2836 173.287 56.3924 138.426 58.1579 125.126C35.7542 146.062 37.5199 168.193 41.1526 180.163C45.0759 193.09 56.1432 192.98 60.5608 191.987Z" fill="url(#paint7_linear_12_58375)"/>
<path d="M20.7472 149.617C24.0481 151.108 30.923 156.598 33.9479 159.156C27.7798 131.503 49.6342 104.32 59.0443 94.7573C28.5535 98.0072 16.6523 116.749 12.3548 128.497C7.71354 141.184 16.621 147.753 20.7472 149.617Z" fill="url(#paint8_linear_12_58375)"/>
<path d="M12.6561 93.1995C14.4765 96.331 16.8835 104.793 17.8595 108.632C28.9032 82.5411 62.483 73.1113 75.6978 70.7941C48.9916 55.7264 28.4167 64.068 18.0945 71.1332C6.94651 78.7635 10.3806 89.2851 12.6561 93.1995Z" fill="url(#paint9_linear_12_58375)"/>
<defs>
<linearGradient id="paint0_linear_12_58375" x1="36" y1="41" x2="100.5" y2="54" gradientUnits="userSpaceOnUse">
<stop stop-color="#F39400"/>
<stop offset="1" stop-color="#E33311"/>
</linearGradient>
<linearGradient id="paint1_linear_12_58375" x1="99" y1="17" x2="131.5" y2="61" gradientUnits="userSpaceOnUse">
<stop stop-color="#EF9C00"/>
<stop offset="1" stop-color="#E2500C"/>
</linearGradient>
<linearGradient id="paint2_linear_12_58375" x1="159" y1="22.5" x2="156" y2="96" gradientUnits="userSpaceOnUse">
<stop stop-color="#B15306"/>
<stop offset="1" stop-color="#AC250B"/>
</linearGradient>
<linearGradient id="paint3_linear_12_58375" x1="202.5" y1="72.5" x2="156" y2="122.5" gradientUnits="userSpaceOnUse">
<stop stop-color="#791703"/>
<stop offset="1" stop-color="#961708"/>
</linearGradient>
<linearGradient id="paint4_linear_12_58375" x1="203" y1="126" x2="140.5" y2="150.5" gradientUnits="userSpaceOnUse">
<stop stop-color="#6A0F02"/>
<stop offset="1" stop-color="#780F13"/>
</linearGradient>
<linearGradient id="paint5_linear_12_58375" x1="171" y1="181.5" x2="110" y2="158" gradientUnits="userSpaceOnUse">
<stop stop-color="#590A0D"/>
<stop offset="1" stop-color="#8C0D28"/>
</linearGradient>
<linearGradient id="paint6_linear_12_58375" x1="116.5" y1="210" x2="79" y2="150" gradientUnits="userSpaceOnUse">
<stop stop-color="#640821"/>
<stop offset="1" stop-color="#C1083C"/>
</linearGradient>
<linearGradient id="paint7_linear_12_58375" x1="61.5" y1="191" x2="53" y2="125" gradientUnits="userSpaceOnUse">
<stop stop-color="#A10842"/>
<stop offset="1" stop-color="#DA0439"/>
</linearGradient>
<linearGradient id="paint8_linear_12_58375" x1="14" y1="151.5" x2="55" y2="92" gradientUnits="userSpaceOnUse">
<stop stop-color="#E60061"/>
<stop offset="1" stop-color="#E52312"/>
</linearGradient>
<linearGradient id="paint9_linear_12_58375" x1="8.5" y1="98" x2="70.5" y2="66.5" gradientUnits="userSpaceOnUse">
<stop stop-color="#EA4B55"/>
<stop offset="1" stop-color="#E7460F"/>
</linearGradient>
</defs>
</svg>
